<svg width="16" height="16" title="Twitter" xmlns="http://www.w3.org/2000/svg" aria-label="Twitter"><path d="M8.342 5.66l.024.433-.398-.053c-1.446-.203-2.71-.892-3.783-2.048l-.525-.574-.135.424c-.287.944-.104 1.942.493 2.612.317.371.246.424-.303.204-.19-.071-.357-.124-.373-.098-.056.062.135.865.286 1.183.206.442.628.874 1.089 1.13l.39.203-.462.009c-.445 0-.46.009-.413.194.159.574.787 1.183 1.486 1.448l.493.185-.429.283c-.65.41-1.381.635-2.13.653-.358.009-.652.044-.652.07 0 .089.97.584 1.534.777 1.693.574 3.704.327 5.214-.653 1.073-.697 2.146-2.083 2.647-3.425.27-.715.54-2.021.54-2.648 0-.406.024-.46.47-.944.262-.283.508-.592.556-.68.079-.168.071-.168-.334-.018-.676.265-.771.23-.438-.167.247-.283.54-.795.54-.945 0-.026-.118.018-.253.097-.143.088-.461.22-.7.3l-.43.15-.388-.29c-.216-.16-.517-.336-.676-.39-.406-.123-1.025-.105-1.391.036-.994.397-1.621 1.422-1.55 2.542z" fill="#fff" fill-rule="evenodd"></path></svg>