<svg width="16" height="16" title="Instagram" xmlns="http://www.w3.org/2000/svg" aria-label="Instagram"><path d="M10.425 2A3.579 3.579 0 0114 5.575v4.85A3.579 3.579 0 0110.425 14h-4.85A3.579 3.579 0 012 10.425v-4.85A3.579 3.579 0 015.575 2zm0 1.207h-4.85a2.368 2.368 0 00-2.368 2.368v4.85a2.368 2.368 0 002.368 2.368h4.85a2.368 2.368 0 002.368-2.368v-4.85a2.368 2.368 0 00-2.368-2.368zM8 4.897A3.107 3.107 0 0111.104 8 3.107 3.107 0 018 11.104 3.107 3.107 0 014.896 8 3.107 3.107 0 018 4.896zm0 1.207a1.896 1.896 0 100 3.792 1.896 1.896 0 000-3.792zm3.11-1.928a.744.744 0 110 1.487.744.744 0 010-1.487z" fill="#fff" fill-rule="evenodd"></path></svg>